<svg xmlns="http://www.w3.org/2000/svg" width="89" height="101" viewBox="0 0 89 101" fill="none"><path d="M88.88 30.008c0-1.677-.36-3.159-1.085-4.43-.712-1.251-1.78-2.3-3.21-3.128C72.772 15.639 60.947 8.848 49.138 2.03c-3.184-1.839-6.27-1.772-9.43.093-4.703 2.773-28.244 16.26-35.259 20.323C1.56 24.12.155 26.678.154 30.005.149 43.703.154 57.4.149 71.1c.001 1.64.344 3.093 1.038 4.345.713 1.289 1.794 2.366 3.259 3.213 7.015 4.063 30.559 17.55 35.26 20.323 3.161 1.866 6.248 1.932 9.433.094 11.81-6.82 23.635-13.61 35.45-20.421 1.464-.847 2.546-1.925 3.258-3.212.693-1.253 1.037-2.706 1.037-4.346 0 0 0-27.39-.004-41.088Z" fill="#5C8DBC"/><path d="M44.653 50.419 1.187 75.445c.713 1.289 1.794 2.366 3.258 3.213 7.016 4.063 30.56 17.55 35.26 20.323 3.162 1.866 6.25 1.932 9.434.094 11.81-6.82 23.635-13.61 35.45-20.42 1.464-.848 2.546-1.926 3.258-3.213L44.653 50.419Z" fill="#1A4674"/><path d="M31.779 57.832c2.529 4.415 7.284 7.393 12.738 7.393 5.488 0 10.27-3.015 12.786-7.478l-12.65-7.328-12.874 7.413Z" fill="#1A4674"/><path d="M88.88 30.008c0-1.677-.36-3.159-1.085-4.43l-43.142 24.84 43.194 25.024c.693-1.253 1.037-2.706 1.037-4.346 0 0 0-27.39-.004-41.088Z" fill="#1B598E"/><path d="M57.303 57.747c-2.516 4.463-7.298 7.479-12.786 7.479-5.454 0-10.21-2.979-12.738-7.394a14.603 14.603 0 0 1-1.936-7.28c0-8.104 6.57-14.673 14.674-14.673 5.42 0 10.149 2.94 12.69 7.311l12.826-7.385c-5.098-8.8-14.615-14.72-25.516-14.72-16.275 0-29.468 13.193-29.468 29.467 0 5.34 1.42 10.346 3.903 14.665 5.085 8.846 14.63 14.803 25.565 14.803 10.955 0 20.515-5.981 25.592-14.853l-12.806-7.42Z" fill="#fff"/></svg>
