<svg width="104" height="24" viewBox="0 0 104 24" fill="none" xmlns="http://www.w3.org/2000/svg">
<path d="M37.2423 2.66881C37.5454 3.6464 38.0637 6.11926 35.8257 6.82717C34.9503 7.10528 33.7706 7.09444 32.894 6.97405C32.1352 6.85486 31.3475 6.5599 30.2653 6.31911C28.6479 5.95192 26.8368 7.22326 24.8238 8.53434V7.7867C24.8238 6.58639 24.1023 5.7942 23.5708 5.77012H13.1629C11.9519 5.79541 11.5599 7.21484 11.5599 9.02073C10.3105 8.97739 9.58897 9.33856 9.30878 9.51554L9.12239 8.25142C10.2824 6.69102 10.3229 4.56483 9.22319 2.96127C8.12348 1.35772 6.12698 0.631747 4.25572 1.155C2.38446 1.67825 1.05265 3.33489 0.942059 5.27688C0.831471 7.21886 1.96658 9.01632 3.76632 9.7491L4.16316 10.8844C2.48563 10.4414 0 9.11343 0 5.72437C0 1.31439 3.31658 0.000904301 5.55087 0.000904301C6.49793 -0.0170272 7.43093 0.232035 8.24334 0.719649C9.23663 1.1964 11.4565 3.64158 13.6764 2.15112C13.6764 2.15112 17.8311 -1.07179 22.3646 1.67557C22.4213 1.71009 22.4506 1.77629 22.438 1.84152C22.4254 1.90675 22.3736 1.95725 22.3081 1.96812C21.9738 2.01989 17.2515 1.89829 18.145 3.74993C19.9247 7.45442 25.4732 -1.72071 30.3867 1.97173C32.2879 3.40079 32.8759 4.18816 34.7014 4.71548C36.0723 5.11278 36.7457 3.39116 36.9862 2.66881C37.0042 2.61328 37.0559 2.5757 37.1143 2.5757C37.1726 2.5757 37.2243 2.61328 37.2423 2.66881ZM20.2879 10.8062C19.1852 11.0867 18.1546 11.1192 16.9545 10.7315V9.95016H19.4798C19.7832 9.95878 20.0773 9.84514 20.2963 9.63473L20.2879 10.8062Z" fill="#8084D2"/>
<path d="M62.1695 20.1065C62.2534 20.1067 62.331 20.1507 62.3745 20.2225C62.418 20.2942 62.4209 20.3835 62.3824 20.458L62.404 21.7992H13.2747C12.166 21.7992 9.85711 21.2249 8.86984 19.578C8.85061 19.5471 8.84636 19.5092 8.85827 19.4748C8.87018 19.4404 8.89698 19.4133 8.93117 19.401L10.189 18.8917C10.2367 18.8715 10.2919 18.8841 10.3261 18.923C11.145 19.8151 12.0493 20.1065 12.8743 20.1065H62.1695ZM10.4139 17.6276C10.4734 17.8017 10.459 17.9926 10.374 18.1558C10.2889 18.3189 10.1408 18.4401 9.96414 18.4908L8.55477 18.8881L8.50307 18.9026C8.12365 18.9751 7.7504 18.7506 7.63604 18.3813L4.22807 9.11102C3.07897 8.68559 2.19982 7.73929 1.85909 6.5611C1.28188 4.53369 2.49523 2.50628 4.45896 1.92719C5.3837 1.63824 6.36497 1.81161 7.17427 2.21733V2.2679C7.17427 2.32569 7.2837 2.29318 7.2837 2.23539C7.45153 2.32406 7.60851 2.43193 7.75148 2.55684C7.6301 2.5656 7.53609 2.66675 7.53609 2.7886C7.53609 2.91044 7.6301 3.01159 7.75148 3.02035C7.81457 3.02678 7.87722 3.00454 7.92217 2.95977C7.96713 2.91499 7.98966 2.85239 7.98357 2.7892V2.73141C8.14787 2.8573 8.28526 3.01491 8.38762 3.19492H8.3311C8.21522 3.19817 8.11814 3.28372 8.10022 3.39839C8.08671 3.47127 8.10363 3.54652 8.14704 3.60658C8.19044 3.66664 8.25653 3.70626 8.3299 3.71622C8.45407 3.70746 8.55268 3.60822 8.56079 3.48386C8.67846 3.64482 8.77542 3.81996 8.84939 4.00516V4.12556C8.84939 4.19205 8.90323 4.24595 8.96965 4.24595C8.96965 4.30374 9.02737 4.41932 9.02737 4.4771C9.36573 5.66139 9.10734 6.93644 8.33471 7.89505L10.4139 17.6276ZM8.97085 5.22715H8.97566C8.91794 5.16816 8.86022 5.22715 8.8506 5.34754C8.8506 5.40052 8.90832 5.46794 8.97085 5.52091C9.03338 5.57388 9.0911 5.51609 9.0911 5.40052C9.0911 5.28494 9.02857 5.22715 8.97085 5.22715ZM6.12206 2.05841C6.07433 2.05145 6.02613 2.06745 5.99203 2.1016C5.95792 2.13574 5.94193 2.184 5.94889 2.23178C5.95144 2.32758 6.02876 2.40445 6.12446 2.40635C6.17199 2.4129 6.21983 2.3967 6.25364 2.36262C6.28745 2.32853 6.30329 2.28052 6.29642 2.23298C6.29331 2.13789 6.21704 2.06153 6.12206 2.05841ZM4.97364 2.12704C4.91592 2.06925 4.8582 2.12704 4.85339 2.24743C4.85339 2.3004 4.91592 2.36301 4.97364 2.4208C5.04006 2.4208 5.0939 2.36689 5.0939 2.3004C5.0939 2.18483 5.03136 2.12704 4.97364 2.12704ZM4.46858 2.6989C4.41567 2.6989 4.35795 2.75428 4.35795 2.87227C4.34361 2.92148 4.36197 2.97438 4.4037 3.00409C4.44542 3.0338 4.50136 3.0338 4.54309 3.00409C4.58481 2.97438 4.60317 2.92148 4.58883 2.87227C4.58883 2.75669 4.5263 2.6989 4.46858 2.6989ZM4.44693 3.83902L4.45174 3.83661C4.32504 3.84257 4.2233 3.94339 4.21605 4.07018C4.20188 4.21352 4.30421 4.34212 4.44693 4.36032C4.55877 4.41811 4.67902 4.30253 4.67902 4.12797C4.69312 3.98446 4.58996 3.85603 4.44693 3.83902ZM3.87694 4.90329L3.88175 4.90089C3.93947 4.90089 3.99719 4.8431 3.98757 4.72993C4.0019 4.68072 3.98355 4.62782 3.94182 4.59811C3.9001 4.5684 3.84416 4.5684 3.80243 4.59811C3.76071 4.62782 3.74235 4.68072 3.75668 4.72993C3.75668 4.84551 3.81921 4.90329 3.87694 4.90329ZM3.87694 3.56934L3.88175 3.56694C3.93947 3.62472 3.99719 3.56693 3.99719 3.44895C3.99719 3.38246 3.94335 3.32856 3.87694 3.32856C3.81052 3.32856 3.75668 3.38246 3.75668 3.44895C3.75668 3.51544 3.81052 3.56934 3.87694 3.56934ZM4.37719 6.6815L4.382 6.67909C4.44561 6.67655 4.49622 6.62482 4.49744 6.5611C4.49744 6.50693 4.43491 6.44432 4.37719 6.38653C4.31466 6.38653 4.25694 6.44071 4.25694 6.5611C4.25694 6.62759 4.31077 6.6815 4.37719 6.6815ZM4.44693 5.5787L4.45174 5.57629C4.51427 5.58216 4.5762 5.56009 4.62095 5.51598C4.66571 5.47187 4.68872 5.41023 4.68383 5.34754C4.67508 5.22602 4.57405 5.1319 4.45235 5.1319C4.33065 5.1319 4.22961 5.22602 4.22086 5.34754C4.21504 5.4096 4.2368 5.47107 4.28035 5.51561C4.32391 5.56014 4.38484 5.58322 4.44693 5.5787ZM5.49313 6.80911L5.49795 6.8067C5.61919 6.79639 5.71501 6.69945 5.72402 6.57796C5.72402 6.46599 5.67111 6.3456 5.55086 6.3456C5.4213 6.36856 5.31245 6.4562 5.26225 6.57796C5.27042 6.70207 5.36916 6.80093 5.49313 6.80911ZM6.01503 7.36533L6.01984 7.36292C6.08345 7.36038 6.13406 7.30865 6.13529 7.24493C6.13529 7.12815 6.07636 7.07036 6.01503 7.07036C5.9537 7.07036 5.9537 7.12454 5.89478 7.24493C5.89478 7.31142 5.94862 7.36533 6.01503 7.36533ZM6.6668 6.93552L6.67161 6.93312C6.82327 6.91397 6.93566 6.78271 6.93136 6.62973C6.92414 6.46238 6.81111 6.30226 6.64275 6.35764C6.4744 6.29985 6.35415 6.47322 6.35415 6.64658C6.36381 6.81139 6.50194 6.93904 6.6668 6.93552ZM7.24281 7.36533L7.24762 7.36292C7.31123 7.36038 7.36184 7.30865 7.36307 7.24493C7.36307 7.12815 7.30535 7.07036 7.24281 7.07036C7.18028 7.07036 7.12256 7.12454 7.12256 7.24493C7.12256 7.31142 7.1764 7.36533 7.24281 7.36533ZM7.80199 6.73928L7.8068 6.73688C7.85308 6.74163 7.89899 6.72501 7.93153 6.69173C7.96407 6.65845 7.97969 6.61214 7.97395 6.56592C7.9692 6.47201 7.89455 6.39676 7.80079 6.39135C7.75318 6.3849 7.70529 6.40108 7.67132 6.43509C7.63735 6.46911 7.62118 6.51705 7.62762 6.56471C7.62892 6.66058 7.70623 6.73799 7.80199 6.73928ZM7.68174 4.93339L7.68895 4.9346C7.45686 4.58666 7.86212 4.47108 8.093 4.58546V5.10676C8.26617 5.10676 8.55718 5.10676 8.63174 4.88764C8.62754 4.76219 8.58563 4.64093 8.51148 4.53971C8.39604 4.42413 8.22769 4.48192 8.10743 4.48192C8.10743 4.30855 8.16515 3.90765 8.04971 3.84504C7.93427 3.78244 7.76591 3.84504 7.64566 3.72465C7.52541 3.66686 7.58313 3.4345 7.52541 3.26114L7.46648 3.14074C7.29332 3.08175 7.12497 3.14074 7.00471 3.08175C7.00471 2.79281 7.00471 2.56045 6.71611 2.56045C6.37459 2.56045 6.54294 3.08175 6.25434 3.14074C5.6182 3.25632 5.96453 2.73984 5.67592 2.61944C5.60271 2.58542 5.51824 2.58542 5.44503 2.61944C5.32478 2.67723 5.27187 3.08175 5.44503 3.14074C5.44503 3.14074 5.74326 3.05767 5.79136 3.14074C5.83946 3.22382 5.90199 3.66205 5.67111 3.71983C5.15162 3.95099 5.28149 3.19974 4.92073 3.25632C4.55997 3.31291 4.68023 3.66205 4.80048 3.66205C5.31035 3.72465 5.1444 4.12195 5.1444 4.12195C5.1444 4.12195 5.08187 4.3531 5.02415 4.3531C4.90871 4.4157 4.73554 4.30013 4.67662 4.47349C4.44573 5.11037 5.01934 4.937 5.13959 5.11037C5.25503 5.22715 5.19731 5.4583 5.19731 5.63167H4.85098C4.79326 5.69066 4.67301 6.03378 4.79326 6.15417C5.07706 6.38533 5.19731 6.03739 5.19731 5.69066H5.48592C5.88997 5.74845 5.65908 6.20715 5.94769 6.32754C6.52611 6.50091 6.2375 5.86403 6.58383 5.80624C7.0456 5.69066 6.75699 6.38533 7.21876 6.38533C7.62402 6.32754 7.39193 5.86884 7.5663 5.74845C7.65344 5.68936 7.76775 5.68936 7.8549 5.74845C7.97034 5.74845 7.97034 5.63167 8.02807 5.57388V5.22715C8.02807 4.93339 7.97034 5.22715 7.73946 5.10676C7.69504 5.06067 7.67382 4.99694 7.68174 4.93339ZM8.21566 5.96877L8.22288 5.96997C8.22829 6.06066 8.29855 6.13406 8.38882 6.14334C8.4365 6.15064 8.48482 6.13497 8.51916 6.10106C8.5535 6.06716 8.56982 6.01901 8.56319 5.97118C8.5613 5.87536 8.48451 5.79796 8.38882 5.7954C8.3411 5.78844 8.29289 5.80444 8.25879 5.83859C8.22469 5.87273 8.2087 5.92099 8.21566 5.96877ZM5.48111 4.42533C5.55284 4.42533 5.61098 4.48355 5.61098 4.55536C5.61147 4.60865 5.57971 4.65695 5.53063 4.67757C5.48154 4.69819 5.42487 4.68704 5.38723 4.64935C5.34959 4.61166 5.33845 4.55493 5.35904 4.50579C5.37964 4.45664 5.42788 4.42485 5.48111 4.42533ZM6.22788 4.09787C6.22788 4.14907 6.18642 4.19057 6.13529 4.19057C6.08415 4.19057 6.04269 4.14907 6.04269 4.09787C6.04269 4.04667 6.08415 4.00516 6.13529 4.00516C6.18642 4.00516 6.22788 4.04667 6.22788 4.09787ZM6.63313 3.19733V3.19853C6.75452 3.2073 6.84853 3.30845 6.84853 3.43029C6.84853 3.55213 6.75452 3.65328 6.63313 3.66205C6.50495 3.66205 6.40104 3.55801 6.40104 3.42969C6.40104 3.30136 6.50495 3.19733 6.63313 3.19733ZM6.20383 5.09833C6.27024 5.09833 6.32408 5.15223 6.32408 5.21872C6.32408 5.28521 6.27024 5.33912 6.20383 5.33912C6.13742 5.33912 6.08358 5.28521 6.08358 5.21872C6.08358 5.15223 6.13742 5.09833 6.20383 5.09833ZM7.21516 4.2291C7.14963 4.23456 7.0866 4.20265 7.05215 4.14656C7.01771 4.09048 7.01771 4.01977 7.05215 3.96369C7.0866 3.90761 7.14963 3.8757 7.21516 3.88116C7.26301 3.87463 7.31114 3.89095 7.34517 3.92526C7.3792 3.95957 7.39518 4.00787 7.38832 4.05573C7.38297 4.14917 7.30849 4.22374 7.21516 4.2291ZM7.22718 5.15852C7.34262 5.15852 7.40035 5.2741 7.45807 5.38968C7.45855 5.48388 7.40219 5.56905 7.31535 5.60532C7.22852 5.6416 7.1284 5.62179 7.06187 5.55518C6.99534 5.48858 6.97556 5.38834 7.01179 5.30141C7.04802 5.21447 7.13309 5.15804 7.22718 5.15852ZM42.3146 15.7134C43.3006 15.7134 43.7576 16.0613 43.7576 17.1015V17.7962C43.1203 18.2007 41.8444 18.6052 40.2799 18.6052C37.1533 18.6052 35.6417 17.1015 35.6417 13.9785C35.6417 10.9687 37.2652 9.35181 40.512 9.35181C41.7289 9.35181 43.0625 9.64195 43.7588 9.98868V11.1457C43.7588 11.7813 43.3536 11.8969 42.5996 11.8969C42.5996 11.8969 41.6135 11.608 40.8607 11.608C39.8169 11.608 39.1219 12.4748 39.1219 13.9785C39.1219 15.3666 39.7592 16.2347 40.8054 16.2347C41.5582 16.2347 41.9646 16.0035 42.3122 15.7134H42.3146ZM57.3726 10.439H57.3714C58.0016 9.74308 59.2065 9.33616 60.3537 9.33616C62.0168 9.33616 63.6234 10.3234 63.6234 13.7473C63.6234 17.1713 62.018 18.622 59.8955 18.622C58.6918 18.622 57.8308 18.3319 57.2572 17.577C56.971 18.2151 56.5694 18.5643 56.11 18.5643H53.9298V6.43469H56.2254C56.799 6.43469 57.3726 7.07277 57.3726 8.17557V10.439ZM57.3871 12.2581V15.7976C57.6168 15.9144 58.1904 16.3201 58.5343 16.3201C59.2799 16.3201 59.9677 15.9144 59.9677 14.1145C59.9677 12.4315 59.2799 11.6778 58.5343 11.6778C57.6733 11.6778 57.6168 12.2003 57.3871 12.2581ZM72.3874 9.40117C72.9658 9.40117 73.5431 10.038 73.5431 11.1372V18.6594H71.0586C70.4814 18.6594 70.0184 18.0875 70.0184 17.335C69.2681 18.0815 68.3433 18.6594 66.9568 18.6594C65.5126 18.6594 64.2992 18.0815 64.2992 15.9421V9.40117H66.8991C67.8238 9.40117 67.7661 9.98026 67.7661 10.5581V14.6069C67.7661 15.1848 68.1124 15.7627 68.6319 15.7627H69.4989C70.2505 15.7627 70.0762 14.6069 70.0762 14.6069V9.40117H72.3874ZM91.6519 12.9515V18.6546H88.1766V9.40117H90.4939C91.0735 9.40117 91.3621 9.75031 91.5365 10.9145C92.1738 9.98387 92.9266 9.46016 93.9692 9.46016C94.2001 9.46016 94.3696 9.46016 94.4899 9.51795V12.6024H94.1424C93.095 12.6602 92.1738 12.777 91.6519 12.9515ZM23.0308 6.43108V6.43469C23.5936 6.43469 24.1576 7.07277 24.1576 8.17557V18.622H20.7761V6.43108H23.0308ZM24.8238 14.1362C24.8238 11.2456 26.8753 9.39394 29.783 9.39394C32.6907 9.39394 34.7435 11.2444 34.7435 14.1362C34.7435 17.028 32.6907 18.6473 29.783 18.6473C26.933 18.6473 24.8238 16.9703 24.8238 14.1362ZM30.9928 14.1121C30.9928 12.4929 30.537 11.856 29.7902 11.856C29.0435 11.856 28.5877 12.547 28.5877 14.1121C28.5877 15.7314 29.0495 16.3671 29.7902 16.3671C30.5935 16.3671 30.9928 15.6772 30.9928 14.1121ZM20.342 6.43108V8.0022C20.342 9.1038 20.0522 9.33616 18.4287 9.33616H16.2834V11.6573H19.1827V12.9949C19.1827 14.0953 18.8905 14.56 17.3272 14.56H16.2834V18.6184H12.2261V9.33254C12.2261 7.82402 12.3415 6.43108 13.5597 6.43108H20.342ZM101.922 9.22419V9.2278C103.054 9.2278 103.621 9.86227 103.508 10.9566V17.5325C103.508 19.0302 103.111 20.2413 102.204 21.1635C101.189 22.3145 99.769 22.4879 99.1449 22.4879H96.2239C95.969 22.3181 95.9558 20.706 96.4789 19.8055C96.7074 19.413 97.7367 19.4335 98.0121 19.4335C99.1449 19.4335 99.6548 19.0844 99.9951 17.8744C99.4443 18.1974 98.8209 18.3759 98.1829 18.3933C97.3327 18.3933 96.5967 18.1044 96.0291 17.4711C95.4627 16.8944 95.1802 16.0878 95.1802 15.1078V9.17001H97.3892C98.2959 9.17001 98.522 9.80448 98.522 10.8989V14.7574C98.522 15.2763 98.9753 15.5653 99.4287 15.5653C99.882 15.5653 100.221 15.2763 100.221 14.6997V9.22419H101.922ZM76.9234 6.43108V6.43469C77.4308 6.43469 78.0501 7.13056 78.0501 8.17557V18.622H74.6686V6.43108H76.9234ZM48.6411 9.40117C51.6113 9.40117 52.8102 10.327 52.8102 12.7565V18.6558H50.4689C49.84 18.6558 49.555 18.309 49.3866 17.7889C48.7589 18.4246 47.9592 18.6558 46.8746 18.6558C45.3894 18.6558 44.247 17.8467 44.247 16.0541C44.247 14.1446 45.5037 12.8733 47.56 12.8733C48.1877 12.8733 49.3866 13.1622 49.3866 13.1622C49.3866 11.1384 47.0453 11.7175 46.5318 11.7175C46.2456 11.7175 45.0467 12.0643 45.1032 11.1396L44.8146 10.0429C46.044 9.61158 47.3385 9.39612 48.6411 9.40598V9.40117ZM48.2406 16.8968C48.8684 16.8968 49.383 16.9546 49.383 15.741C49.383 14.8152 48.8118 14.873 48.2406 14.873C47.726 14.873 47.3832 15.1042 47.3832 15.741C47.3832 16.839 47.6117 16.8968 48.2406 16.8968ZM82.8891 9.40117C85.8593 9.40117 87.0583 10.327 87.0583 12.7565V18.6558H84.7145C84.0868 18.6558 83.8006 18.309 83.6323 17.7889C83.0033 18.4246 82.2037 18.6558 81.119 18.6558C79.6339 18.6558 78.4915 17.8467 78.4915 16.0541C78.4915 14.1446 79.7481 12.8733 81.8044 12.8733C82.4321 12.8733 83.6323 13.1622 83.6323 13.1622C83.6323 11.1384 81.2897 11.7175 80.7763 11.7175C80.4901 11.7175 79.2911 12.0643 79.3477 11.1396L79.0602 10.0429C80.2896 9.61158 81.5841 9.39612 82.8867 9.40598L82.8891 9.40117ZM82.4863 16.8968C83.114 16.8968 83.6287 16.9546 83.6287 15.741C83.6287 14.8152 83.0575 14.873 82.4863 14.873C81.9728 14.873 81.6301 15.1042 81.6301 15.741C81.6301 16.839 81.8585 16.8968 82.4863 16.8968Z" fill="#F9F9F9"/>
<path d="M74.3529 20.9047C74.4425 21.1126 74.4875 21.3369 74.4852 21.5632V23.2487H73.819V21.5632C73.82 21.4275 73.793 21.2931 73.7397 21.1683C73.5769 20.7902 73.2045 20.5458 72.7933 20.5471C72.6573 20.546 72.5226 20.573 72.3976 20.6266C72.1536 20.7304 71.9589 20.9245 71.8541 21.1683C71.8007 21.2931 71.7737 21.4275 71.7747 21.5632V23.2487H71.1085V21.5632C71.1074 21.337 71.1524 21.1129 71.2408 20.9047C71.3257 20.705 71.4482 20.5235 71.6016 20.3701C72.0895 19.8876 72.819 19.7452 73.4523 20.009C73.6524 20.0954 73.835 20.2178 73.991 20.3701C74.1444 20.5237 74.2673 20.7051 74.3529 20.9047ZM77.9257 20.6145L76.0557 22.4879C76.4449 22.6829 76.9153 22.6041 77.2198 22.2928L77.4519 22.0593L77.9257 22.5336L77.6924 22.766C77.5361 22.9241 77.3502 23.0497 77.1452 23.1356C76.7319 23.3057 76.2682 23.3057 75.8549 23.1356C75.6493 23.0509 75.4632 22.9251 75.3078 22.766C75.1452 22.6071 75.0188 22.4149 74.9374 22.2025C74.8588 21.9998 74.818 21.7843 74.8171 21.5668C74.8165 21.3508 74.8573 21.1366 74.9374 20.936C75.0195 20.7267 75.1453 20.5375 75.3066 20.381C75.4655 20.219 75.6563 20.0919 75.8669 20.0078C76.0686 19.9278 76.2837 19.8869 76.5007 19.8874C76.7184 19.8874 76.9341 19.9283 77.1368 20.0078C77.3469 20.0917 77.537 20.2188 77.6948 20.381L77.9257 20.6145ZM76.9408 20.6591C76.7555 20.5645 76.5453 20.53 76.3395 20.5604C76.1263 20.5905 75.9291 20.6909 75.7791 20.8457C75.4676 21.1507 75.3884 21.6221 75.5831 22.0123L75.8585 21.7366L76.2505 21.3465C76.3876 21.2081 76.5211 21.0768 76.6474 20.9528C76.7736 20.8288 76.871 20.7301 76.9408 20.6591ZM81.2783 20.8999C81.3673 21.1079 81.4123 21.3321 81.4106 21.5584V23.2439H79.7271C79.5026 23.2456 79.2802 23.2005 79.0741 23.1115C78.6665 22.9379 78.3429 22.6117 78.1722 22.2025C77.9023 21.5719 78.0454 20.8402 78.5329 20.3581C78.689 20.2053 78.8721 20.0828 79.0729 19.9969C79.4919 19.8219 79.9634 19.8219 80.3824 19.9969C80.7836 20.1702 81.1033 20.4908 81.2759 20.8926L81.2783 20.8999ZM80.7444 21.5596C80.7449 21.4238 80.7188 21.2892 80.6674 21.1635C80.6143 21.0431 80.5398 20.9333 80.4474 20.8397C80.3544 20.747 80.2446 20.6731 80.1239 20.6218C79.9989 20.5684 79.8642 20.5413 79.7283 20.5423C79.4581 20.5428 79.1989 20.6496 79.0067 20.8397C78.9142 20.9327 78.8403 21.0427 78.7891 21.1635C78.7358 21.2887 78.7088 21.4235 78.7097 21.5596C78.7091 21.8311 78.8166 22.0917 79.0085 22.2835C79.2003 22.4754 79.4607 22.5827 79.7319 22.5818H80.7468V21.5596H80.7444ZM83.7435 19.8741L83.7507 20.5351H83.4116C83.4116 20.5351 82.9558 20.5604 82.6901 20.8325C82.5986 20.9268 82.5249 21.0369 82.4724 21.1575C82.4192 21.2819 82.3922 21.4159 82.3931 21.5512V23.2427H81.7136V21.5572C81.7125 21.331 81.7575 21.1069 81.8459 20.8987C82.022 20.4958 82.3463 20.1764 82.7514 20.0066C82.9575 19.9175 83.1799 19.8724 83.4044 19.8741H83.7435ZM86.9903 20.9143C87.0791 21.1208 87.1245 21.3433 87.1238 21.5681C87.1257 21.7941 87.0802 22.018 86.9903 22.2254C86.905 22.4245 86.7826 22.6055 86.6296 22.7587C86.4746 22.9118 86.2922 23.0343 86.092 23.1199C85.8847 23.2078 85.6618 23.2524 85.4367 23.2511C85.2103 23.2535 84.9859 23.2088 84.7777 23.1199C84.6447 23.0629 84.5194 22.9893 84.4049 22.9008V24H83.7495V21.727C83.7495 21.674 83.7423 21.621 83.7423 21.5668C83.7406 21.3421 83.7856 21.1195 83.8746 20.9131C83.9574 20.7098 84.0801 20.5252 84.2353 20.3701C84.3895 20.2161 84.572 20.0934 84.7729 20.009C84.9809 19.9195 85.2054 19.8748 85.4318 19.8777C85.6569 19.8772 85.8797 19.9218 86.0872 20.009C86.2884 20.0927 86.4711 20.2154 86.6248 20.3701C86.7793 20.5254 86.9026 20.7089 86.9879 20.9107L86.9903 20.9143ZM86.4648 21.5681C86.4655 21.4312 86.4385 21.2957 86.3855 21.1696C86.3332 21.0476 86.2586 20.9365 86.1654 20.8421C85.9717 20.6505 85.7101 20.5436 85.4379 20.5447C85.3008 20.5438 85.1649 20.5709 85.0386 20.6242C84.7902 20.725 84.5926 20.9215 84.4903 21.1696C84.4373 21.2957 84.4103 21.4312 84.4109 21.5681C84.4098 21.7038 84.4368 21.8382 84.4903 21.9629C84.5415 22.0841 84.6159 22.1941 84.7091 22.2868C84.8041 22.3798 84.9159 22.4538 85.0386 22.5047C85.1649 22.558 85.3008 22.585 85.4379 22.5842C85.5753 22.5847 85.7115 22.5577 85.8383 22.5047C85.9606 22.4543 86.0717 22.3803 86.1654 22.2868C86.2583 22.1935 86.3329 22.0837 86.3855 21.9629C86.4374 21.8366 86.4636 21.7011 86.4624 21.5644L86.4648 21.5681ZM90.533 20.9143C90.6214 21.1208 90.6665 21.3434 90.6653 21.5681C90.6676 21.794 90.6225 22.018 90.533 22.2254C90.4489 22.4252 90.3263 22.6064 90.1722 22.7587C90.0174 22.912 89.835 23.0346 89.6347 23.1199C89.4274 23.2079 89.2044 23.2526 88.9793 23.2511C88.7533 23.2534 88.5294 23.2087 88.3215 23.1199C88.1208 23.0346 87.938 22.912 87.7828 22.7587C87.6292 22.606 87.5067 22.4249 87.422 22.2254C87.2472 21.8059 87.2472 21.3338 87.422 20.9143C87.5072 20.713 87.6296 20.5296 87.7828 20.3738C87.9385 20.221 88.1211 20.0985 88.3215 20.0126C88.5296 19.9247 88.7535 19.8805 88.9793 19.8826C89.2043 19.8813 89.4272 19.9256 89.6347 20.0126C89.8359 20.0963 90.0186 20.2191 90.1722 20.3738C90.325 20.5281 90.4466 20.7104 90.5306 20.9107L90.533 20.9143ZM90.0063 21.5681C90.0038 21.2249 89.8308 20.9054 89.5449 20.7161C89.259 20.5267 88.8977 20.4923 88.5813 20.6242C88.4579 20.6738 88.3458 20.7479 88.2518 20.8421C88.1589 20.9363 88.085 21.0474 88.0341 21.1696C87.9811 21.2957 87.9541 21.4312 87.9548 21.5681C87.9537 21.7038 87.9807 21.8382 88.0341 21.9629C88.0854 22.0838 88.1593 22.1937 88.2518 22.2868C88.3461 22.3806 88.4581 22.4546 88.5813 22.5047C88.8369 22.6107 89.1241 22.6107 89.3798 22.5047C89.5027 22.4549 89.6144 22.3808 89.708 22.2868C89.8009 22.1938 89.8752 22.0839 89.9269 21.9629C89.98 21.8369 90.0062 21.7012 90.0039 21.5644L90.0063 21.5681ZM93.5501 19.1433H94.2043V21.4922C94.2043 21.5175 94.2043 21.5404 94.2043 21.5644C94.2062 21.7905 94.1607 22.0144 94.0708 22.2218C93.9864 22.4214 93.8638 22.6025 93.7101 22.7551C93.5553 22.9084 93.3729 23.031 93.1725 23.1163C92.9652 23.2042 92.7422 23.2488 92.5171 23.2475C92.2916 23.2497 92.068 23.205 91.8606 23.1163C91.6598 23.0304 91.4767 22.9079 91.3206 22.7551C91.1671 22.6023 91.0446 22.4212 90.9599 22.2218C90.7831 21.8027 90.7831 21.3298 90.9599 20.9107C91.0427 20.7078 91.1654 20.5235 91.3206 20.3689C91.4764 20.2157 91.6595 20.0931 91.8606 20.0078C92.0679 19.9189 92.2916 19.8746 92.5171 19.8777C92.8914 19.8739 93.2557 19.9988 93.5489 20.2317V19.1482L93.5501 19.1433ZM93.5501 21.5681C93.5508 21.4312 93.5238 21.2957 93.4708 21.1696C93.3684 20.9215 93.1709 20.725 92.9224 20.6242C92.6663 20.5183 92.3788 20.5183 92.1227 20.6242C92 20.6751 91.8882 20.7491 91.7932 20.8421C91.7004 20.9365 91.6261 21.0476 91.5744 21.1696C91.5213 21.2957 91.4944 21.4312 91.495 21.5681C91.4939 21.7038 91.5209 21.8382 91.5744 21.9629C91.6261 22.0839 91.7003 22.1938 91.7932 22.2868C92.0923 22.5789 92.5363 22.6646 92.9224 22.5047C93.1696 22.404 93.3669 22.2091 93.4708 21.9629C93.5226 21.8367 93.5476 21.7009 93.5441 21.5644L93.5501 21.5681ZM64.2998 20.3292H65.3592C65.4839 20.3279 65.6082 20.3442 65.7284 20.3774C65.8338 20.4056 65.9329 20.4533 66.0206 20.5182C66.1037 20.5816 66.1701 20.6642 66.2142 20.759C66.2643 20.8646 66.289 20.9805 66.2864 21.0973C66.2929 21.2535 66.2405 21.4065 66.1397 21.5259C66.0375 21.639 65.9066 21.7222 65.7609 21.7667V21.7751C65.851 21.7808 65.939 21.805 66.0194 21.8462C66.0994 21.8868 66.1705 21.9428 66.2287 22.0111C66.3547 22.1556 66.4228 22.3418 66.4199 22.5336C66.4225 22.659 66.394 22.7831 66.3369 22.8948C66.281 22.9991 66.2025 23.0896 66.1072 23.1596C66.0041 23.2345 65.8884 23.2903 65.7657 23.3246C65.6297 23.3636 65.4887 23.3827 65.3472 23.3812H64.2998V20.3292ZM64.7159 21.6006H65.2799C65.3535 21.6002 65.4268 21.5921 65.4987 21.5765C65.5637 21.5617 65.6253 21.5347 65.6803 21.497C65.7306 21.4594 65.7717 21.4108 65.8006 21.355C65.8326 21.2891 65.8479 21.2163 65.8451 21.1431C65.8452 21.0267 65.8024 20.9143 65.7248 20.8276C65.6296 20.7328 65.498 20.6841 65.364 20.694H64.7159V21.6006ZM64.7159 23.0248H65.3171C65.3873 23.0238 65.4572 23.0174 65.5264 23.0055C65.601 22.9928 65.6727 22.9667 65.738 22.9285C65.8051 22.889 65.8626 22.8352 65.9064 22.7708C65.9556 22.6924 65.9796 22.6008 65.9749 22.5083C65.9865 22.3511 65.9204 22.1982 65.7982 22.099C65.6573 22.0017 65.488 21.9542 65.3171 21.9641H64.7159V23.0248ZM67.7354 22.0821L66.5798 20.3292H67.1089L67.9411 21.6716L68.7973 20.3292H69.3011L68.1467 22.0821V23.3836H67.733V22.0821H67.7354Z" fill="#8084D2"/>
</svg>
