<svg width="82" height="24" viewBox="0 0 82 24" fill="none" xmlns="http://www.w3.org/2000/svg">
<path d="M49.3574 14.9223C49.6507 13.9737 49.9313 13.0652 50.2112 12.1574C50.5151 11.1721 50.8237 10.1881 51.1157 9.19871C51.1825 8.97359 51.3161 8.94352 51.5165 8.94486C52.4624 8.95221 53.409 8.9315 54.3536 8.95822C54.735 8.96891 54.8265 8.83665 54.8165 8.47792C54.7931 7.59813 54.8199 6.717 54.8025 5.83655C54.7971 5.56065 54.8867 5.50254 55.1485 5.50254C56.6311 5.51456 58.1137 5.51456 59.5962 5.50254C59.651 5.49381 59.707 5.49602 59.761 5.50906C59.815 5.5221 59.8658 5.54569 59.9106 5.57849C59.9554 5.61128 59.9932 5.65263 60.0219 5.70013C60.0506 5.74764 60.0696 5.80036 60.0779 5.85525C60.8955 8.33295 61.7306 10.8046 62.5616 13.2777C62.5936 13.3739 62.6411 13.4654 62.7152 13.6377C62.9323 13.0325 63.1307 12.4907 63.3205 11.9463C64.0292 9.91484 64.74 7.88471 65.4347 5.8479C65.455 5.73755 65.5176 5.63953 65.6093 5.57484C65.701 5.51015 65.8143 5.48396 65.9251 5.50187C67.331 5.51613 68.737 5.51613 70.143 5.50187C70.4102 5.50187 70.489 5.57669 70.4883 5.84457C70.4808 10.2477 70.4808 14.6511 70.4883 19.0547C70.4883 19.3587 70.3788 19.4121 70.1109 19.4088C69.1142 19.3961 68.1169 19.3927 67.1202 19.4088C66.8189 19.4135 66.728 19.3246 66.73 19.0187C66.7414 16.5683 66.7367 14.1174 66.73 11.6704C66.73 11.5301 66.7968 11.3671 66.6345 11.2295C66.4535 11.5491 66.3201 11.8935 66.2384 12.2516C65.5316 14.3371 64.8275 16.4247 64.1461 18.5183C64.1377 18.5697 64.119 18.6189 64.0912 18.6629C64.0634 18.7069 64.0269 18.7449 63.9841 18.7745C63.9413 18.8041 63.8929 18.8248 63.8419 18.8353C63.7909 18.8458 63.7383 18.8459 63.6872 18.8356C62.9203 18.8243 62.1507 18.8116 61.3865 18.8423C61.0625 18.855 60.9557 18.7274 60.8641 18.4495C60.0912 16.1047 59.305 13.7647 58.522 11.4232C58.4906 11.3297 58.496 11.2141 58.3624 11.1741C58.2328 11.2803 58.2956 11.4312 58.2956 11.5588C58.2909 14.0345 58.2856 16.5109 58.3003 18.9866C58.3003 19.3266 58.2101 19.4221 57.8721 19.4135C57.0036 19.3901 56.1352 19.3874 55.2668 19.4135C54.9087 19.4248 54.7951 19.3467 54.7992 18.9619C54.8172 15.9625 54.8092 12.9637 54.8085 9.96426V9.51669C54.6161 9.59685 54.6048 9.74315 54.5593 9.86339C53.2233 13.44 51.8872 17.0166 50.5512 20.5932C50.2556 21.5099 49.7053 22.3236 48.9646 22.9393C48.0214 23.5955 46.8633 23.867 45.7267 23.6982C45.2553 23.6593 44.7902 23.5645 44.3412 23.4156C44.1629 23.3575 44.0934 23.2733 44.1208 23.0816C44.2404 22.2619 44.3559 21.4416 44.4602 20.6199C44.4862 20.4128 44.5584 20.3627 44.7581 20.4195C45.1519 20.5349 45.5663 20.5625 45.9719 20.5003C46.3176 20.4636 46.6431 20.3198 46.9032 20.0892C47.1633 19.8586 47.345 19.5525 47.4228 19.2137C47.4531 19.1028 47.4441 18.9848 47.3975 18.8797C46.2102 15.9008 45.022 12.9223 43.8329 9.94422C43.8008 9.88906 43.7646 9.83637 43.7247 9.78658C43.7029 10.3052 43.6341 10.8209 43.5189 11.327C43.3175 12.1163 42.9046 12.8355 42.3246 13.4074C41.7446 13.9793 41.0195 14.382 40.2276 14.5723C39.2933 14.7922 38.3305 14.8655 37.3738 14.7894C37.0544 14.7841 36.9643 14.8736 36.9689 15.1942C36.987 16.4701 36.9689 17.7467 36.9823 19.0227C36.9823 19.3072 36.9342 19.4235 36.6129 19.4155C35.6035 19.3927 34.5934 19.3988 33.5841 19.4155C33.3289 19.4188 33.2601 19.3406 33.2607 19.0901C33.2683 14.6741 33.2683 10.258 33.2607 5.8419C33.2607 5.56868 33.3456 5.50321 33.6081 5.50454C35.2568 5.5159 36.9061 5.49586 38.5515 5.51456C39.9433 5.45571 41.3051 5.92995 42.3592 6.84059C42.8908 7.32361 43.2746 7.94736 43.4661 8.63957C43.4723 8.68899 43.4885 8.73661 43.5138 8.77951C43.5391 8.8224 43.5729 8.85965 43.6132 8.88895C43.6534 8.91825 43.6993 8.93898 43.7479 8.94987C43.7965 8.96075 43.8468 8.96154 43.8957 8.95221C44.9051 8.94553 45.9164 8.97359 46.9245 8.93685C47.3053 8.92282 47.4215 9.07779 47.519 9.39377C48.0454 11.0966 48.5879 12.794 49.1296 14.4915C49.1519 14.6576 49.2326 14.8104 49.3574 14.9223ZM36.9729 10.1567C36.9729 10.6163 36.9816 11.0759 36.9689 11.5348C36.9629 11.7486 37.0357 11.8327 37.2522 11.8254C37.6608 11.8363 38.0698 11.816 38.4753 11.7646C38.8383 11.7028 39.1678 11.5148 39.4055 11.2336C39.6433 10.9525 39.774 10.5963 39.7746 10.2281C39.8373 9.86421 39.7562 9.49016 39.5485 9.18485C39.3407 8.87954 39.0226 8.66681 38.661 8.59148C38.16 8.49245 37.6478 8.46233 37.1386 8.50196C36.9382 8.49729 36.9743 8.65428 36.9736 8.77586C36.973 9.23813 36.9729 9.69773 36.9729 10.1567Z" fill="#F9F9F9"/>
<path d="M4.97524 9.24345C5.04204 10.9235 4.97524 12.9924 5.15093 15.0553C5.24935 16.1624 5.52967 17.2458 5.98061 18.2618C6.18837 18.7374 6.30528 18.7548 6.60589 18.3286C7.15327 17.5257 7.53335 16.6208 7.72349 15.6678C8.17039 13.6123 8.47368 11.5334 8.74556 9.44921C9.01745 7.36497 9.32274 5.28208 9.46569 3.18248C9.5178 2.4196 9.49241 1.65204 9.51112 0.887823C9.52648 0.269234 9.64472 0.189072 10.2633 0.293283C10.7035 0.366766 11.1478 0.417534 11.5913 0.471644C12.2206 0.547799 12.2473 0.563157 12.2086 1.20646C12.1605 2.00809 12.0663 2.80972 12.0329 3.61135C11.9314 6.05832 11.8619 8.50663 11.7557 10.9529C11.6305 13.0022 11.2416 15.0267 10.5987 16.9765C10.2696 18.1861 9.63439 19.2904 8.75425 20.183C8.48864 20.4894 8.13597 20.7077 7.74321 20.8086C7.35045 20.9096 6.93625 20.8885 6.55578 20.7482C6.15482 20.6148 5.73576 20.5438 5.31326 20.5377C3.76478 20.4843 2.81485 19.6132 2.12946 18.3219C1.38787 16.8243 0.854525 15.2324 0.54424 13.5903C-0.0370705 10.5808 -0.153545 7.49989 0.198873 4.45506C0.292396 3.38623 0.391932 2.32207 0.532885 1.26191C0.64244 0.43891 0.987142 0.241841 1.81081 0.403503C2.37618 0.507738 2.9489 0.567159 3.52363 0.581201C4.24042 0.607254 4.45151 0.806321 4.61317 1.50774C4.86785 2.66649 4.98889 3.85061 4.9739 5.03691C4.9739 6.30749 4.97524 7.58342 4.97524 9.24345Z" fill="#576BE8"/>
<path d="M24.9377 15.7613C24.6606 16.3357 24.3303 16.8828 23.951 17.3953C23.7867 17.6578 23.5412 17.8595 23.2518 17.9698C22.9625 18.0801 22.6451 18.093 22.3477 18.0066C22.058 17.9563 21.7632 17.9415 21.4699 17.9625C21.2749 17.9838 21.0776 17.9636 20.8909 17.9033C20.7043 17.843 20.5324 17.744 20.3867 17.6127C20.2409 17.4814 20.1246 17.3208 20.0452 17.1414C19.9658 16.962 19.9253 16.7678 19.9261 16.5717C19.8346 15.5814 19.8523 14.584 19.9789 13.5976C20.0457 12.6357 20.1847 11.6784 20.1606 10.6697C19.9034 10.7746 19.84 10.9943 19.7511 11.1747C19.0836 12.5932 18.583 14.0844 18.2594 15.6184C17.9134 17.1321 17.582 18.6492 17.1238 20.1349C17.1115 20.2046 17.0853 20.2712 17.0469 20.3306C17.0084 20.3901 16.9585 20.4412 16.9 20.4811C16.8414 20.5209 16.7755 20.5486 16.7061 20.5626C16.6367 20.5766 16.5652 20.5765 16.4958 20.5624C15.9494 20.4823 15.3996 20.4956 14.8518 20.4676C14.6417 20.4579 14.4361 20.4032 14.249 20.3072C14.0618 20.2112 13.8974 20.0761 13.767 19.9111C13.17 19.1256 12.7882 18.1979 12.6594 17.2196C12.1029 14.6133 12.208 11.909 12.9653 9.35367C13.1257 8.80255 13.1911 8.75245 13.7523 8.74644C14.2626 8.74243 14.7723 8.75913 15.2834 8.70702C15.4172 8.68182 15.5549 8.68683 15.6866 8.72166C15.8182 8.75649 15.9404 8.82028 16.0442 8.90837C16.1481 8.99645 16.2309 9.10662 16.2867 9.23081C16.3426 9.35501 16.37 9.4901 16.3669 9.62623C16.4119 10.1087 16.4293 10.5934 16.419 11.0778C16.3781 11.8064 16.424 12.5372 16.556 13.2549C16.7423 12.7873 16.9407 12.327 17.1118 11.8561C17.6324 10.5669 18.314 9.34874 19.1405 8.23072C19.2784 7.99659 19.4885 7.81347 19.7393 7.70881C19.99 7.60415 20.2679 7.58358 20.5314 7.65021C20.8993 7.69053 21.2706 7.68918 21.6383 7.6462C22.2395 7.6462 22.3731 7.75509 22.5187 8.32425C22.6531 8.96099 22.6815 9.61553 22.6029 10.2615C22.4787 11.9656 22.3444 13.6684 22.2155 15.3732C22.1901 15.4736 22.1865 15.5782 22.205 15.6801C22.2234 15.7819 22.2634 15.8787 22.3223 15.9638C22.4998 15.7905 22.639 15.5821 22.7312 15.3519C23.0739 14.6124 23.3738 13.8515 23.7512 13.1307C24.3001 11.9685 24.6422 10.7195 24.762 9.43984C24.8937 8.60876 25.1178 7.79498 25.43 7.01359C25.4732 6.85236 25.5726 6.71189 25.7103 6.61755C25.848 6.52322 26.0149 6.48125 26.1808 6.49921C27.0112 6.52526 27.8415 6.51924 28.6719 6.52993C29.1676 6.53594 29.2865 6.65352 29.3566 7.15721C29.4237 7.76598 29.4057 8.38111 29.3032 8.98492C29.0199 11.0304 28.7694 13.079 28.5517 15.1307C28.5325 15.3468 28.5278 15.564 28.5376 15.7807C28.5517 16.2564 28.6044 16.2904 29.066 16.1214C29.4706 15.9644 29.8576 15.7651 30.2204 15.5269C30.4388 15.3893 30.4836 15.4688 30.4829 15.6772C30.4829 16.2784 30.4829 16.8763 30.4829 17.4762C30.4869 17.514 30.4833 17.5522 30.4725 17.5887C30.4616 17.6251 30.4437 17.6591 30.4196 17.6886C30.3956 17.7181 30.366 17.7425 30.3325 17.7605C30.299 17.7785 30.2622 17.7897 30.2244 17.7935C29.0812 18.0814 27.8898 18.123 26.7293 17.9157C26.4672 17.8546 26.2213 17.7381 26.0079 17.5742C25.7946 17.4102 25.6187 17.2026 25.4921 16.9651C25.2762 16.5789 25.0908 16.1764 24.9377 15.7613Z" fill="#576BE8"/>
<path d="M80.938 10.971L80.9761 11.0879C80.8906 11.5081 80.8724 11.9392 80.922 12.3651C80.8738 12.8674 80.8916 13.3738 80.9747 13.8715C80.9266 14.112 80.7316 14.0051 80.608 14.0051C79.1898 14.0138 77.7702 14.0258 76.352 14.0005C75.9512 13.9931 75.8423 14.1227 75.8697 14.5015C75.8965 14.9346 75.8965 15.369 75.8697 15.8021C75.8537 16.1087 75.9646 16.1942 76.2645 16.1916C77.811 16.1789 79.3581 16.1956 80.9039 16.1789C81.2379 16.1749 81.3488 16.2684 81.3388 16.6091C81.3152 17.3996 81.3152 18.1907 81.3388 18.9826C81.3488 19.3166 81.2533 19.4168 80.9113 19.4155C78.1376 19.4021 75.364 19.4021 72.5904 19.4155C72.2564 19.4155 72.1595 19.3386 72.1602 18.9939C72.1722 14.7947 72.1675 10.5955 72.1682 6.39701C72.1682 6.14183 72.1762 5.88664 72.1802 5.63212C72.5791 5.54663 72.9907 5.53847 73.3927 5.60808C75.5377 5.60808 77.6827 5.60807 79.8271 5.61208C80.1046 5.57495 80.3849 5.56109 80.6648 5.57067C80.9039 5.61008 81.0115 5.69425 81.0048 5.96012C80.9861 6.69895 80.9988 7.43846 80.9981 8.17796C80.9981 8.68098 80.9981 8.68099 80.5104 8.68099C79.0802 8.68099 77.6506 8.689 76.2204 8.67631C75.9231 8.67631 75.8149 8.75246 75.8296 9.06376C75.855 9.59818 75.8416 10.1326 75.8336 10.667C75.8336 10.8941 75.9218 10.9897 76.1503 10.9883C77.7464 10.9812 79.3423 10.9754 80.938 10.971Z" fill="#F9F9F9"/>
<path d="M27.3194 3.29871C26.9854 3.29871 26.6567 3.2927 26.326 3.29871C26.2593 3.30493 26.192 3.29766 26.1281 3.27735C26.0642 3.25704 26.005 3.22409 25.9541 3.18047C25.9032 3.13686 25.8616 3.08345 25.8317 3.02344C25.8019 2.96342 25.7844 2.89801 25.7803 2.8311C25.6185 2.04316 25.6562 1.2273 25.8898 0.457608C25.9089 0.343175 25.9713 0.240482 26.0641 0.170832C26.1569 0.101181 26.2729 0.0699183 26.3881 0.0835165C27.1633 0.146981 27.9432 0.122329 28.7129 0.0100335C29.0689 -0.0460804 29.1985 0.137629 29.2286 0.449596C29.2976 0.969884 29.2309 1.49917 29.0349 1.98604C29.0148 2.0328 29.0028 2.08291 28.9808 2.129C28.8077 2.48907 28.8832 3.04085 28.5238 3.20719C28.129 3.29665 27.7205 3.308 27.3214 3.24059L27.3194 3.29871Z" fill="#576BE8"/>
<path d="M80.9381 10.9709C79.3429 10.9776 77.7474 10.9847 76.1517 10.9923C75.9226 10.9923 75.8317 10.8981 75.8351 10.671C75.8431 10.1366 75.8564 9.60216 75.8311 9.06775C75.8164 8.75645 75.9246 8.67762 76.2218 8.68029C77.6521 8.69298 79.0817 8.68564 80.5119 8.68497C80.9989 8.68497 80.9996 8.68497 80.9996 8.18194C80.9996 7.44311 80.9875 6.70294 81.0062 5.9641C81.0129 5.69689 80.9054 5.61406 80.6662 5.57465C80.3863 5.56507 80.1061 5.57893 79.8285 5.61606C77.6835 5.60938 75.5385 5.61273 73.3941 5.61206C72.9921 5.54245 72.5805 5.55061 72.1816 5.6361C72.1816 5.44037 72.3353 5.5025 72.4328 5.5025C75.2445 5.5025 78.0569 5.50251 80.8693 5.49583C81.1238 5.49583 81.1599 5.60605 81.1579 5.81848C81.1499 6.68691 81.1445 7.55534 81.1612 8.42377C81.1666 8.69966 81.0704 8.76446 80.8105 8.76246C79.3662 8.75177 77.922 8.75443 76.4777 8.75844C75.795 8.75844 75.9072 8.69165 75.8972 9.31692C75.8905 9.72508 75.9119 10.1346 75.8912 10.5421C75.8765 10.8353 75.9907 10.9088 76.2693 10.9068C77.7009 10.8955 79.1324 10.8995 80.564 10.9068C80.6862 10.8988 80.8392 10.8193 80.9381 10.9709Z" fill="#F9F9F9"/>
<path d="M80.9745 13.8715C80.8914 13.3738 80.8736 12.8674 80.9218 12.3651C80.8721 11.9392 80.8904 11.5081 80.9759 11.0879C81.0357 12.0148 81.0352 12.9446 80.9745 13.8715Z" fill="#F9F9F9"/>
<path d="M46.1314 24H46.1191L46.1253 23.9734L46.1314 24Z" fill="#F9F9F9"/>
</svg>
