<svg width="24" height="24" viewBox="0 0 24 24" fill="none" xmlns="http://www.w3.org/2000/svg">
<path d="M12.0001 0C5.37346 0 0 5.50848 0 12.3038C0 17.74 3.43838 22.3519 8.2064 23.9789C8.80611 24.0927 9.02633 23.712 9.02633 23.3869C9.02633 23.0936 9.01513 22.1243 9.01004 21.0962C5.67151 21.8405 4.96709 19.6445 4.96709 19.6445C4.42121 18.2224 3.6347 17.8443 3.6347 17.8443C2.54599 17.0806 3.71676 17.0963 3.71676 17.0963C4.9218 17.1831 5.55634 18.3642 5.55634 18.3642C6.62659 20.2452 8.36357 19.7014 9.04834 19.3871C9.15601 18.5918 9.46707 18.0491 9.8102 17.7418C7.14488 17.4306 4.34292 16.3756 4.34292 11.6612C4.34292 10.318 4.81169 9.22032 5.57938 8.35871C5.45477 8.04876 5.04406 6.7974 5.69561 5.10263C5.69561 5.10263 6.7033 4.77193 8.9965 6.36384C9.95365 6.09114 10.9802 5.95449 12.0001 5.94987C13.0199 5.95449 14.0472 6.09114 15.0063 6.36384C17.2967 4.77193 18.303 5.10263 18.303 5.10263C18.9562 6.7974 18.5452 8.04876 18.4206 8.35871C19.19 9.22032 19.6556 10.3179 19.6556 11.6612C19.6556 16.3868 16.8484 17.4274 14.1763 17.732C14.6067 18.1138 14.9902 18.8626 14.9902 20.0105C14.9902 21.6567 14.9763 22.9817 14.9763 23.3869C14.9763 23.7144 15.1922 24.098 15.8006 23.9772C20.566 22.3485 24 17.7382 24 12.3038C24 5.50848 18.6273 0 12.0001 0Z" fill="white"/>
</svg>
