<svg width="372" height="355" viewBox="0 0 372 355" fill="none" xmlns="http://www.w3.org/2000/svg">
<g clip-path="url(#clip0_3_232)">
<path d="M276.663 265.862C275.658 267.237 275.536 267.893 275.043 268.344C235.943 290.833 194.381 297.706 150.722 284.82C139.69 281.593 129.722 275.577 121.169 267.447C102.686 250.183 97.8302 224.061 108.731 201.374C114.346 189.517 121.79 179.16 133.612 172.682C139.386 174.921 145.057 177.345 150.666 179.01C159.829 181.682 168.845 181.132 177.116 175.822C183.335 172.029 186.41 166.491 185.09 161.894C183.358 155.861 178.179 152.986 172.593 153.025C164.829 153.062 157.026 154.043 149.49 155.414C144.623 156.335 139.799 158.487 135.18 160.269C116.022 145.528 118.11 120.846 139.921 102.042C143.291 102.947 146.845 103.954 150.317 104.674C163.279 107.04 175.394 104.83 185.427 95.9094C189.264 92.4849 192.381 88.1776 190.547 82.3292C189.125 77.9171 183.946 75.0421 177.127 75.1208C166.324 75.4027 156.594 79.4194 147.295 84.4006C144.093 86.2456 140.892 88.0906 137.875 90.0383C107.556 68.377 100.712 26.661 129.442 5.41878C126.935 4.26854 125.003 2.95443 123.483 3.07679C121.676 3.28107 119.809 4.90105 118.516 6.35717C106.846 20.4061 100.599 36.017 105.405 54.3828C108.891 68.152 115.867 79.9942 125.45 90.6272C126.807 92.1051 128.164 93.5831 129.419 95.2456C129.604 95.3483 129.584 95.8202 129.728 96.8667C128.621 98.4255 127.494 100.456 125.997 102.282C108.379 124.863 107.864 141.482 124.629 165.763C122.66 167.567 120.485 169.741 118.228 171.628C105.528 183.173 97.2663 197.183 94.0813 214.252C88.8339 242.01 100.591 268.34 125.193 284.171C138.552 292.795 153.202 297.788 168.916 299.992C206.938 305.16 242.606 298.879 275.3 277.906C277.045 276.942 278.707 275.691 280.452 274.728C280.739 274.646 281.212 274.667 282.629 274.729C280.624 281.827 276.79 287.427 273.14 293.129C269.778 298.749 265.944 304.348 262.089 310.42C267.206 312.536 270.49 310.978 273.342 308.456C276.502 305.38 280.031 302.509 282.266 298.919C288.17 289.156 293.992 279.105 299.073 268.643C302.925 260.397 299.901 255.82 291.48 255.734C273.591 255.705 255.6 255.86 237.609 256.015C234.672 256.075 231.9 256.71 228.183 257.303C230.305 263.07 234.084 263.236 237.576 263.483C250.433 263.859 262.983 264.789 276.663 265.862ZM181.923 84.787C173.187 96.6009 160.642 100.021 148.867 94.2088C159.13 88.7972 168.634 83.4468 181.923 84.787ZM175.952 163.1C167.316 172.555 157.048 173.617 146.38 166.246C156.193 162.516 165.124 159.504 175.952 163.1Z" fill="#0D1927"/>
</g>
<defs>
<clipPath id="clip0_3_232">
<rect width="246" height="287" fill="white" transform="matrix(-0.485373 0.874307 0.874307 0.485373 120.238 0.309174)"/>
</clipPath>
</defs>
</svg>
