<svg width="158" height="237" viewBox="0 0 158 237" xmlns="http://www.w3.org/2000/svg">
  <g clip-path="url(#clip0_3_222)">
    <path d="M58.6306 12.1562C57.1693 14.9487 56.2529 17.9912 54.5192 20.6587C38.8222 43.7989 36.3022 69.5217 39.4436 95.863C40.5218 104.932 44.2314 114.385 49.1699 122.257C62.9488 144.904 81.3051 163.384 104.345 176.758C110.977 180.625 118.513 183.258 126.553 184.803C124.951 182.914 123.276 180.826 121.475 179.011C116.345 173.689 111.015 168.44 106.209 162.772C104.189 160.361 102.946 156.988 101.975 153.739C101.536 152.548 102.672 150.101 103.795 149.462C104.918 148.823 107.549 149.205 108.114 150.124C119.513 165.083 134.891 176.096 149.093 188.218C154.057 192.475 154.503 196.142 149.999 200.507C138.765 211.183 125.563 218.978 110.866 223.943C110.467 224.09 109.577 223.517 107.942 222.767C108.012 209.442 122.086 208.313 130.131 198.812C127.227 198.304 124.868 198.047 122.835 197.444C82.7244 183.824 54.1668 156.705 33.9997 120.409C30.8823 115.021 28.9407 108.524 27.7435 102.203C23.4864 78.9778 25.4886 56.1506 34.9133 34.4201C37.9951 27.4241 43.1834 21.2295 47.9731 15.1819C49.78 12.7128 53.1685 11.4641 55.7397 9.84045C56.7034 10.6123 57.667 11.3843 58.6306 12.1562Z" fill="black"/>
  </g>
  <defs>
    <clipPath id="clip0_3_222">
      <rect width="220" height="87" fill="black" transform="translate(81.7818 0.243866) rotate(69.771)"/>
    </clipPath>
  </defs>
</svg>
