<svg xmlns="http://www.w3.org/2000/svg" width="862" height="200" viewBox="0 0 862 200"><path fill="rgba(255, 255, 255, .25)" d="M310.54,22.75 C313.06,30.87 317.37,51.41 298.76,57.29 C291.48,59.6 281.67,59.51 274.38,58.51 C268.07,57.52 261.52,55.07 252.52,53.07 C239.07,50.02 224.01,60.58 207.27,71.47 L207.27,65.26 C207.27,55.29 201.27,48.71 196.85,48.51 L110.3,48.51 C100.23,48.72 96.97,60.51 96.97,75.51 C86.58,75.15 80.58,78.15 78.25,79.62 L76.7,69.12 C86.3463024,56.1590977 86.6832159,38.49866 77.5382705,25.1792713 C68.3933252,11.8598827 51.7908097,5.82987015 36.2297459,10.1760676 C20.668682,14.522265 9.59360517,28.2826154 8.67397656,44.4130346 C7.75434794,60.5434538 17.1937329,75.4733762 32.16,81.56 L35.46,90.99 C21.51,87.31 0.84,76.28 0.84,48.13 C0.84,11.5 28.42,0.59 47,0.59 C54.8754944,0.441058302 62.6341511,2.50980239 69.39,6.56 C77.65,10.52 96.11,30.83 114.57,18.45 C114.57,18.45 149.12,-8.32 186.82,14.5 C187.291508,14.7867791 187.534844,15.3366152 187.430046,15.8784451 C187.325247,16.420275 186.894437,16.8397206 186.35,16.93 C183.57,17.36 144.3,16.35 151.73,31.73 C166.53,62.5 212.67,-13.71 253.53,16.96 C269.34,28.83 274.23,35.37 289.41,39.75 C300.81,43.05 306.41,28.75 308.41,22.75 C308.560116,22.2888217 308.990005,21.9766627 309.475,21.9766627 C309.959995,21.9766627 310.389884,22.2888217 310.54,22.75 Z M169.55,90.34 C160.38,92.67 151.81,92.94 141.83,89.72 L141.83,83.23 L162.83,83.23 C165.352932,83.301572 167.799058,82.3577058 169.62,80.61 L169.55,90.34 Z">
</path>
<path fill="#fff" d="M517.83,167.59 C518.527223,167.592034 519.173065,167.957019 519.534484,168.553258 C519.895902,169.149497 519.920727,169.890921 519.6,170.51 L519.78,181.65 L111.23,181.65 C102.01,181.65 82.81,176.88 74.6,163.2 C74.4401349,162.943587 74.4047839,162.628638 74.5038258,162.343164 C74.6028676,162.05769 74.8256806,161.832308 75.11,161.73 L85.57,157.5 C85.966358,157.33233 86.4255365,157.437055 86.71,157.76 C93.52,165.17 101.04,167.59 107.9,167.59 L517.83,167.59 Z M87.44,147 C87.9348577,148.446162 87.8148228,150.03201 87.1079265,151.38721 C86.4010302,152.74241 85.1691642,153.748307 83.7,154.17 L71.98,157.47 L71.55,157.59 C68.3948944,158.192135 65.290958,156.328051 64.34,153.26 L36,76.26 C26.4442832,72.7263187 19.1334348,64.8662288 16.3,55.08 C11.5,38.24 21.59,21.4 37.92,16.59 C45.61,14.19 53.77,15.63 60.5,19 L60.5,19.42 C60.5,19.9 61.41,19.63 61.41,19.15 C62.8056161,19.8864746 64.1110199,20.7824716 65.3,21.82 C64.2905816,21.8928011 63.5088344,22.7329597 63.5088344,23.745 C63.5088344,24.7570403 64.2905816,25.5971989 65.3,25.67 C65.8246328,25.7233742 66.3455541,25.5386908 66.7194077,25.1667744 C67.0932612,24.7948579 67.2806481,24.2749029 67.23,23.75 L67.23,23.27 C68.5962611,24.315653 69.7388133,25.6248274 70.59,27.12 L70.12,27.12 C69.1563365,27.1469698 68.349049,27.857551 68.2,28.81 C68.0876909,29.4154089 68.2283982,30.0403935 68.5893208,30.5392603 C68.9502434,31.0381272 69.4998432,31.3672842 70.11,31.45 C71.1425263,31.3771929 71.9625577,30.5528906 72.03,29.52 C73.008536,30.8568999 73.8148756,32.311671 74.43,33.85 L74.43,34.85 C74.43,35.4022847 74.8777153,35.85 75.43,35.85 C75.43,36.33 75.91,37.29 75.91,37.77 C78.7237772,47.6068309 76.5750305,58.1976154 70.15,66.16 L87.44,147 Z M75.44,44 L75.48,44 C75,43.51 74.52,44 74.44,45 C74.44,45.44 74.92,46 75.44,46.44 C75.96,46.88 76.44,46.4 76.44,45.44 C76.44,44.48 75.92,44 75.44,44 Z M51.75,17.68 C51.3531444,17.6221164 50.9522658,17.7550888 50.6686773,18.0386773 C50.3850888,18.3222658 50.2521164,18.7231444 50.31,19.12 C50.3312138,19.9157309 50.9741421,20.5542556 51.77,20.57 C52.16526,20.6243769 52.5630973,20.4898461 52.8442361,20.2067414 C53.1253748,19.9236366 53.25713,19.5248714 53.2,19.13 C53.1740833,18.3401712 52.5398288,17.7059167 51.75,17.68 Z M42.2,18.25 C41.72,17.77 41.24,18.25 41.2,19.25 C41.2,19.69 41.72,20.21 42.2,20.69 C42.7522847,20.69 43.2,20.2422847 43.2,19.69 C43.2,18.73 42.68,18.25 42.2,18.25 Z M38,23 C37.56,23 37.08,23.46 37.08,24.44 C36.9607821,24.8487471 37.1134561,25.288158 37.4604334,25.5349248 C37.8074106,25.7816917 38.2725894,25.7816917 38.6195666,25.5349248 C38.9665439,25.288158 39.1192179,24.8487471 39,24.44 C39,23.48 38.48,23 38,23 Z M37.82,32.47 L37.86,32.45 C36.8063336,32.4994811 35.9602851,33.3368965 35.9,34.39 C35.7821358,35.5806135 36.6331564,36.6488217 37.82,36.8 C38.75,37.28 39.75,36.32 39.75,34.87 C39.8672431,33.6780071 39.0093878,32.6112439 37.82,32.47 Z M33.08,41.31 L33.12,41.29 C33.6,41.29 34.08,40.81 34,39.87 C34.1192179,39.4612529 33.9665439,39.021842 33.6195666,38.7750752 C33.2725894,38.5283083 32.8074106,38.5283083 32.4604334,38.7750752 C32.1134561,39.021842 31.9607821,39.4612529 32.08,39.87 C32.08,40.83 32.6,41.31 33.08,41.31 Z M33.08,30.23 L33.12,30.21 C33.6,30.69 34.08,30.21 34.08,29.23 C34.08,28.6777153 33.6322847,28.23 33.08,28.23 C32.5277153,28.23 32.08,28.6777153 32.08,29.23 C32.08,29.7822847 32.5277153,30.23 33.08,30.23 Z M37.24,56.08 L37.28,56.06 C37.8089491,56.0389229 38.2298324,55.6092712 38.24,55.08 C38.24,54.63 37.72,54.11 37.24,53.63 C36.72,53.63 36.24,54.08 36.24,55.08 C36.24,55.6322847 36.6877153,56.08 37.24,56.08 Z M37.82,46.92 L37.86,46.9 C38.3799652,46.9487928 38.8949378,46.7654681 39.2671051,46.3990857 C39.6392725,46.0327034 39.8306416,45.5206658 39.79,45 C39.7171989,43.9905816 38.8770403,43.2088344 37.865,43.2088344 C36.8529597,43.2088344 36.0128011,43.9905816 35.94,45 C35.8915701,45.5154442 36.0725382,46.0260674 36.4347441,46.3959798 C36.7969499,46.7658921 37.3036505,46.9575689 37.82,46.92 Z M46.52,57.14 L46.56,57.12 C47.5682624,57.0343627 48.3650367,56.2291122 48.44,55.22 C48.44,54.29 48,53.29 47,53.29 C45.9226678,53.4807479 45.0174601,54.2086858 44.6,55.22 C44.6679759,56.2509188 45.4890812,57.0720241 46.52,57.14 Z M50.86,61.76 L50.9,61.74 C51.4289491,61.7189229 51.8498324,61.2892712 51.86,60.76 C51.86,59.79 51.37,59.31 50.86,59.31 C50.35,59.31 50.35,59.76 49.86,60.76 C49.86,61.3122847 50.3077153,61.76 50.86,61.76 Z M56.28,58.19 L56.32,58.17 C57.5811843,58.0109621 58.5157202,56.9206703 58.48,55.65 C58.42,54.26 57.48,52.93 56.08,53.39 C54.68,52.91 53.68,54.35 53.68,55.79 C53.7603541,57.158965 54.9089906,58.2192449 56.28,58.19 Z M61.07,61.76 L61.11,61.74 C61.6389491,61.7189229 62.0598324,61.2892712 62.07,60.76 C62.07,59.79 61.59,59.31 61.07,59.31 C60.55,59.31 60.07,59.76 60.07,60.76 C60.07,61.3122847 60.5177153,61.76 61.07,61.76 Z M65.72,56.56 L65.76,56.54 C66.1448163,56.5795053 66.5266577,56.4414683 66.7972582,56.1650274 C67.0678588,55.8885866 67.1977121,55.5038851 67.15,55.12 C67.1104558,54.3399696 66.4897381,53.7149413 65.71,53.67 C65.3140788,53.6164549 64.9158629,53.7508484 64.6333557,54.0333557 C64.3508484,54.3158629 64.2164549,54.7140788 64.27,55.11 C64.2807624,55.9063123 64.9236877,56.5492376 65.72,56.56 Z M64.72,41.56 L64.78,41.57 C62.85,38.68 66.22,37.72 68.14,38.67 L68.14,43 C69.58,43 72,43 72.62,41.18 C72.5851044,40.1379815 72.2365793,39.1307439 71.62,38.29 C70.66,37.33 69.26,37.81 68.26,37.81 C68.26,36.37 68.74,33.04 67.78,32.52 C66.82,32 65.42,32.52 64.42,31.52 C63.42,31.04 63.9,29.11 63.42,27.67 L62.93,26.67 C61.49,26.18 60.09,26.67 59.09,26.18 C59.09,23.78 59.09,21.85 56.69,21.85 C53.85,21.85 55.25,26.18 52.85,26.67 C47.56,27.63 50.44,23.34 48.04,22.34 C47.4311986,22.0573901 46.7288014,22.0573901 46.12,22.34 C45.12,22.82 44.68,26.18 46.12,26.67 C46.12,26.67 48.6,25.98 49,26.67 C49.4,27.36 49.92,31 48,31.48 C43.68,33.4 44.76,27.16 41.76,27.63 C38.76,28.1 39.76,31 40.76,31 C45,31.52 43.62,34.82 43.62,34.82 C43.62,34.82 43.1,36.74 42.62,36.74 C41.66,37.26 40.22,36.3 39.73,37.74 C37.81,43.03 42.58,41.59 43.58,43.03 C44.54,44 44.06,45.92 44.06,47.36 L41.18,47.36 C40.7,47.85 39.7,50.7 40.7,51.7 C43.06,53.62 44.06,50.73 44.06,47.85 L46.46,47.85 C49.82,48.33 47.9,52.14 50.3,53.14 C55.11,54.58 52.71,49.29 55.59,48.81 C59.43,47.85 57.03,53.62 60.87,53.62 C64.24,53.14 62.31,49.33 63.76,48.33 C64.4847201,47.8391889 65.4352799,47.8391889 66.16,48.33 C67.12,48.33 67.12,47.36 67.6,46.88 L67.6,44 C67.6,41.56 67.12,44 65.2,43 C64.8306001,42.617207 64.6541558,42.0878744 64.72,41.56 Z M69.16,50.16 L69.22,50.17 C69.2650572,50.9232804 69.8493178,51.5329436 70.6,51.61 C70.9964564,51.6706531 71.3982667,51.5404691 71.683828,51.2588466 C71.9693893,50.9772241 72.1051412,50.5772605 72.05,50.18 C72.0342556,49.3841421 71.3957309,48.7412138 70.6,48.72 C70.2031444,48.6621164 69.8022658,48.7950888 69.5186773,49.0786773 C69.2350888,49.3622658 69.1021164,49.7631444 69.16,50.16 Z M46.42,37.34 C47.0164675,37.34 47.5,37.8235325 47.5,38.42 C47.5040428,38.8626578 47.2399662,39.2637973 46.8317645,39.435068 C46.4235628,39.6063386 45.9523184,39.5137203 45.6392991,39.2007009 C45.3262797,38.8876816 45.2336614,38.4164372 45.404932,38.0082355 C45.5762027,37.6000338 45.9773422,37.3359572 46.42,37.34 Z M52.63,34.62 C52.63,35.0452593 52.2852593,35.39 51.86,35.39 C51.4347407,35.39 51.09,35.0452593 51.09,34.62 C51.09,34.1947407 51.4347407,33.85 51.86,33.85 C52.2852593,33.85 52.63,34.1947407 52.63,34.62 Z M56,27.14 L56,27.15 C57.0094184,27.2228011 57.7911656,28.0629597 57.7911656,29.075 C57.7911656,30.0870403 57.0094184,30.9271989 56,31 C54.9340904,31 54.07,30.1359096 54.07,29.07 C54.07,28.0040904 54.9340904,27.14 56,27.14 Z M52.43,42.93 C52.9822847,42.93 53.43,43.3777153 53.43,43.93 C53.43,44.4822847 52.9822847,44.93 52.43,44.93 C51.8777153,44.93 51.43,44.4822847 51.43,43.93 C51.43,43.3777153 51.8777153,42.93 52.43,42.93 Z M60.84,35.71 C60.2950533,35.7553728 59.7709277,35.490308 59.484505,35.0244887 C59.1980822,34.5586694 59.1980822,33.9713306 59.484505,33.5055113 C59.7709277,33.039692 60.2950533,32.7746272 60.84,32.82 C61.2379039,32.765733 61.6382101,32.901354 61.9211909,33.1863 C62.2041718,33.471246 62.3370193,33.8724812 62.28,34.27 C62.2355427,35.04613 61.61613,35.6655427 60.84,35.71 Z M60.94,43.429974 C61.9,43.429974 62.38,44.39 62.860026,45.35 C62.8640436,46.1324174 62.3953028,46.8398582 61.6732098,47.1411473 C60.9511169,47.4424363 60.1185697,47.2779503 59.5653097,46.7246903 C59.0120497,46.1714303 58.8475637,45.3388831 59.1488527,44.6167902 C59.4501418,43.8946972 60.1575826,43.4259564 60.94,43.429974 Z M352.72,131.1 C360.92,131.1 364.72,133.99 364.72,142.63 L364.72,148.4 C359.42,151.76 348.81,155.12 335.8,155.12 C309.8,155.12 297.23,142.63 297.23,116.69 C297.23,91.69 310.73,78.26 337.73,78.26 C347.85,78.26 358.94,80.67 364.73,83.55 L364.73,93.16 C364.73,98.44 361.36,99.4 355.09,99.4 C355.09,99.4 346.89,97 340.63,97 C331.95,97 326.17,104.2 326.17,116.69 C326.17,128.22 331.47,135.43 340.17,135.43 C346.43,135.43 349.81,133.51 352.7,131.1 L352.72,131.1 Z M477.94,87.29 L477.93,87.29 C483.17,81.51 493.19,78.13 502.73,78.13 C516.56,78.13 529.92,86.33 529.92,114.77 C529.92,143.21 516.57,155.26 498.92,155.26 C488.91,155.26 481.75,152.85 476.98,146.58 C474.6,151.88 471.26,154.78 467.44,154.78 L449.31,154.78 L449.31,54.03 L468.4,54.03 C473.17,54.03 477.94,59.33 477.94,68.49 L477.94,87.29 Z M478.06,102.4 L478.06,131.8 C479.97,132.77 484.74,136.14 487.6,136.14 C493.8,136.14 499.52,132.77 499.52,117.82 C499.52,103.84 493.8,97.58 487.6,97.58 C480.44,97.58 479.97,101.92 478.06,102.4 Z M602.8,78.67 C607.61,78.67 612.41,83.96 612.41,93.09 L612.41,155.57 L591.75,155.57 C586.95,155.57 583.1,150.82 583.1,144.57 C576.86,150.77 569.17,155.57 557.64,155.57 C545.63,155.57 535.54,150.77 535.54,133 L535.54,78.67 L557.16,78.67 C564.85,78.67 564.37,83.48 564.37,88.28 L564.37,121.91 C564.37,126.71 567.25,131.51 571.57,131.51 L578.78,131.51 C585.03,131.51 583.58,121.91 583.58,121.91 L583.58,78.67 L602.8,78.67 Z M763,108.16 L763,155.53 L734.1,155.53 L734.1,78.67 L753.37,78.67 C758.19,78.67 760.59,81.57 762.04,91.24 C767.34,83.51 773.6,79.16 782.27,79.16 C784.19,79.16 785.6,79.16 786.6,79.64 L786.6,105.26 L783.71,105.26 C775,105.74 767.34,106.71 763,108.16 Z M192.36,54 L192.36,54.03 C197.04,54.03 201.73,59.33 201.73,68.49 L201.73,155.26 L173.61,155.26 L173.61,54 L192.36,54 Z M207.27,118 C207.27,93.99 224.33,78.61 248.51,78.61 C272.69,78.61 289.76,93.98 289.76,118 C289.76,142.02 272.69,155.47 248.51,155.47 C224.81,155.47 207.27,141.54 207.27,118 Z M258.57,117.8 C258.57,104.35 254.78,99.06 248.57,99.06 C242.36,99.06 238.57,104.8 238.57,117.8 C238.57,131.25 242.41,136.53 248.57,136.53 C255.25,136.53 258.57,130.8 258.57,117.8 Z M170,54 L170,67.05 C170,76.2 167.59,78.13 154.09,78.13 L136.25,78.13 L136.25,97.41 L160.36,97.41 L160.36,108.52 C160.36,117.66 157.93,121.52 144.93,121.52 L136.25,121.52 L136.25,155.23 L102.51,155.23 L102.51,78.1 C102.51,65.57 103.47,54 113.6,54 L170,54 Z M848.4,77.2 L848.4,77.23 C857.82,77.23 862.53,82.5 861.59,91.59 L861.59,146.21 C861.59,158.65 858.29,168.71 850.75,176.37 C842.31,185.93 830.5,187.37 825.31,187.37 L801.02,187.37 C798.9,185.96 798.79,172.57 803.14,165.09 C805.04,161.83 813.6,162 815.89,162 C825.31,162 829.55,159.1 832.38,149.05 C827.799711,151.73267 822.616109,153.215174 817.31,153.36 C810.24,153.36 804.12,150.96 799.4,145.7 C794.69,140.91 792.34,134.21 792.34,126.07 L792.34,76.75 L810.71,76.75 C818.25,76.75 820.13,82.02 820.13,91.11 L820.13,123.16 C820.13,127.47 823.9,129.87 827.67,129.87 C831.44,129.87 834.26,127.47 834.26,122.68 L834.26,77.2 L848.4,77.2 Z M640.52,54 L640.52,54.03 C644.74,54.03 649.89,59.81 649.89,68.49 L649.89,155.26 L621.77,155.26 L621.77,54 L640.52,54 Z M405.33,78.67 C430.03,78.67 440,86.36 440,106.54 L440,155.54 L420.53,155.54 C415.3,155.54 412.93,152.66 411.53,148.34 C406.31,153.62 399.66,155.54 390.64,155.54 C378.29,155.54 368.79,148.82 368.79,133.93 C368.79,118.07 379.24,107.51 396.34,107.51 C401.56,107.51 411.53,109.91 411.53,109.91 C411.53,93.1 392.06,97.91 387.79,97.91 C385.41,97.91 375.44,100.79 375.91,93.11 L373.51,84 C383.732973,80.417735 394.497867,78.6280967 405.33,78.71 L405.33,78.67 Z M402,140.93 C407.22,140.93 411.5,141.41 411.5,131.33 C411.5,123.64 406.75,124.12 402,124.12 C397.72,124.12 394.87,126.04 394.87,131.33 C394.87,140.45 396.77,140.93 402,140.93 Z M690.13,78.67 C714.83,78.67 724.8,86.36 724.8,106.54 L724.8,155.54 L705.31,155.54 C700.09,155.54 697.71,152.66 696.31,148.34 C691.08,153.62 684.43,155.54 675.41,155.54 C663.06,155.54 653.56,148.82 653.56,133.93 C653.56,118.07 664.01,107.51 681.11,107.51 C686.33,107.51 696.31,109.91 696.31,109.91 C696.31,93.1 676.83,97.91 672.56,97.91 C670.18,97.91 660.21,100.79 660.68,93.11 L658.29,84 C668.512973,80.417735 679.277867,78.6280967 690.11,78.71 L690.13,78.67 Z M686.78,140.93 C692,140.93 696.28,141.41 696.28,131.33 C696.28,123.64 691.53,124.12 686.78,124.12 C682.51,124.12 679.66,126.04 679.66,131.33 C679.66,140.45 681.56,140.93 686.78,140.93 Z">
</path>
<path fill="#fff" d="M619.14,174.22 C619.884415,175.946578 620.259119,177.809878 620.24,179.69 L620.24,193.69 L614.7,193.69 L614.7,179.69 C614.708333,178.562872 614.483633,177.446184 614.04,176.41 C612.686479,173.269361 609.58987,171.239056 606.17,171.25 C605.039536,171.240575 603.919362,171.465291 602.88,171.91 C600.850481,172.772592 599.231583,174.384326 598.36,176.41 C597.916367,177.446184 597.691667,178.562872 597.7,179.69 L597.7,193.69 L592.15983,193.69 L592.15983,179.69 C592.15068,177.810816 592.524985,175.949501 593.26,174.22 C593.966338,172.561484 594.984805,171.054153 596.26,169.78 C600.317643,165.771775 606.38398,164.589253 611.65,166.78 C613.314099,167.497856 614.832522,168.514657 616.13,169.78 C617.406109,171.055488 618.42764,172.56233 619.14,174.22 Z M648.85,171.81 L633.3,187.37 C636.536006,188.990003 640.447782,188.335346 642.98,185.75 L644.91,183.81 L648.85,187.75 L646.91,189.68 C645.61076,190.993534 644.064379,192.036916 642.36,192.75 C638.92289,194.163008 635.06711,194.163008 631.63,192.75 C629.920446,192.04654 628.372253,191.001935 627.08,189.68 C625.727855,188.360363 624.677162,186.763856 624,185 C623.346601,183.315957 623.007659,181.526342 622.999932,179.72 C622.994401,177.925384 623.333896,176.146428 624,174.48 C624.682522,172.741804 625.729321,171.169901 627.07,169.87 C628.391418,168.524531 629.978402,167.468812 631.73,166.77 C633.407457,166.105831 635.195846,165.766479 637,165.769973 C638.810275,165.770423 640.604486,166.109594 642.29,166.77 C644.036794,167.4668 645.617632,168.522963 646.93,169.87 L648.85,171.81 Z M640.66,172.18 C639.118911,171.394119 637.37138,171.107524 635.66,171.36 C633.886484,171.610284 632.246856,172.444172 631,173.73 C628.409569,176.26306 627.750879,180.178832 629.37,183.42 L631.66,181.13 L634.92,177.89 C636.06,176.74 637.17,175.65 638.22,174.62 C639.27,173.59 640.08,172.77 640.66,172.18 Z M676.73,174.18 C677.469655,175.908061 677.844156,177.77035 677.83,179.65 L677.83,193.65 L663.83,193.65 C661.963276,193.664132 660.11405,193.289519 658.4,192.55 C655.010998,191.107812 652.319638,188.39851 650.9,185 C648.65556,179.762182 649.845729,173.684389 653.9,169.68 C655.198138,168.410781 656.720592,167.393551 658.39,166.68 C661.874421,165.226109 665.795579,165.226109 669.28,166.68 C672.61627,168.119623 675.274866,170.781796 676.71,174.12 L676.73,174.18 Z M672.29,179.66 C672.294241,178.531998 672.076788,177.414155 671.65,176.37 C671.208481,175.369607 670.588351,174.458049 669.82,173.68 C669.046983,172.91062 668.133902,172.296242 667.13,171.87 C666.090296,171.426395 664.970355,171.201726 663.84,171.21 C661.593359,171.214056 659.438369,172.101193 657.84,173.68 C657.07062,174.453017 656.456242,175.366098 656.03,176.37 C655.587216,177.409958 655.362581,178.529727 655.37,179.66 C655.364661,181.915055 656.258801,184.079141 657.854308,185.672772 C659.449815,187.266402 661.614953,188.157994 663.87,188.150053 L672.31,188.150053 L672.31,179.66 L672.29,179.66 Z M697.23,165.66 L697.29,171.15 L694.47,171.15 C694.47,171.15 690.68,171.36 688.47,173.62 C687.709171,174.4038 687.096015,175.318454 686.66,176.32 C686.217441,177.353006 685.992758,178.466208 686,179.59 L686,193.64 L680.35,193.64 L680.35,179.64 C680.34068,177.760816 680.714985,175.899501 681.45,174.17 C682.914438,170.824077 685.610985,168.170503 688.98,166.76 C690.69405,166.020481 692.543276,165.645868 694.41,165.66 L697.23,165.66 Z M724.23,174.3 C724.967974,176.014879 725.345783,177.863082 725.34,179.73 C725.35575,181.607584 724.977613,183.467606 724.23,185.19 C723.520593,186.843887 722.502421,188.347387 721.23,189.62 C719.940925,190.890989 718.424653,191.908621 716.76,192.62 C715.036222,193.349726 713.181843,193.720602 711.31,193.71 C709.427608,193.729565 707.561626,193.358412 705.83,192.62 C704.724031,192.146529 703.682423,191.535005 702.73,190.8 L702.73,199.93 L697.28,199.93 L697.28,181.05 C697.28,180.61 697.22,180.17 697.22,179.72 C697.205868,177.853276 697.580481,176.00405 698.32,174.29 C699.008685,172.601357 700.028766,171.067835 701.32,169.78 C702.601895,168.500245 704.119956,167.481413 705.79,166.78 C707.52014,166.03679 709.387145,165.665433 711.27,165.69 C713.141256,165.685454 714.994435,166.05609 716.72,166.78 C718.393242,167.475467 719.912395,168.495033 721.19,169.78 C722.475162,171.069254 723.50044,172.593592 724.21,174.27 L724.23,174.3 Z M719.860094,179.73 C719.865381,178.593456 719.640882,177.467561 719.2,176.42 C718.765758,175.406711 718.144988,174.484037 717.37,173.7 C715.75932,172.109003 713.583952,171.220878 711.32,171.23 C710.180039,171.222712 709.050497,171.447259 708,171.89 C705.933912,172.727231 704.29085,174.359483 703.44,176.42 C702.999118,177.467561 702.774619,178.593456 702.78,179.73 C702.7708,180.857211 702.995534,181.974075 703.44,183.01 C703.866343,184.016283 704.484508,184.929944 705.26,185.7 C706.049536,186.472563 706.979587,187.08694 708,187.51 C709.050497,187.952741 710.180039,188.177288 711.32,188.17 C712.462905,188.174249 713.595114,187.949847 714.65,187.51 C715.666885,187.091431 716.5912,186.476354 717.37,185.7 C718.142255,184.925169 718.762909,184.012842 719.2,183.01 C719.632193,181.960464 719.849805,180.834998 719.84,179.7 L719.860094,179.73 Z M753.69,174.3 C754.425636,176.015264 754.800083,177.863669 754.79,179.73 C754.809201,181.606899 754.434465,183.466953 753.69,185.19 C752.99086,186.849477 751.971423,188.354845 750.69,189.62 C749.402749,190.893222 747.886028,191.911156 746.22,192.62 C744.496555,193.350804 742.641951,193.721724 740.77,193.71 C738.890943,193.728471 737.028448,193.357334 735.3,192.62 C733.63099,191.911194 732.11098,190.893331 730.82,189.62 C729.54276,188.351373 728.523917,186.846882 727.82,185.19 C726.366109,181.705579 726.366109,177.784421 727.82,174.3 C728.527917,172.627546 729.545811,171.104098 730.82,169.81 C732.11443,168.540904 733.633592,167.523608 735.3,166.81 C737.030528,166.080491 738.892071,165.712947 740.77,165.73 C742.64081,165.719836 744.494446,166.087162 746.22,166.81 C747.893242,167.505467 749.412395,168.525033 750.69,169.81 C751.960342,171.091655 752.972084,172.605872 753.67,174.27 L753.69,174.3 Z M749.31,179.73 C749.289218,176.879464 747.850801,174.226307 745.473407,172.653415 C743.096014,171.080524 740.091623,170.794304 737.46,171.89 C736.433837,172.302164 735.501771,172.917872 734.72,173.7 C733.947823,174.482208 733.333325,175.405652 732.91,176.42 C732.469118,177.467561 732.244619,178.593456 732.25,179.73 C732.2408,180.857211 732.465534,181.974075 732.91,183.01 C733.336242,184.013902 733.95062,184.926983 734.72,185.7 C735.504353,186.478959 736.435738,187.094217 737.46,187.51 C739.585857,188.390033 741.974143,188.390033 744.1,187.51 C745.122596,187.096651 746.051164,186.481008 746.83,185.7 C747.602392,184.927381 748.220124,184.014359 748.65,183.01 C749.091697,181.963331 749.309693,180.83588 749.29,179.7 L749.31,179.73 Z M778.78,159.59 L784.22,159.59 L784.22,179.1 C784.22,179.31 784.22,179.5 784.22,179.7 C784.23575,181.577584 783.857613,183.437606 783.11,185.16 C782.407885,186.817862 781.388819,188.322682 780.11,189.59 C778.822749,190.863222 777.306028,191.881156 775.64,192.59 C773.916222,193.319726 772.061843,193.690602 770.19,193.68 C768.314252,193.697666 766.455185,193.326534 764.73,192.59 C763.060592,191.876449 761.538138,190.859219 760.24,189.59 C758.963347,188.320887 757.944587,186.816517 757.24,185.16 C755.770334,181.678755 755.770334,177.751245 757.24,174.27 C757.928896,172.584414 758.949034,171.054206 760.24,169.77 C761.53501,168.496931 763.058232,167.479188 764.73,166.77 C766.454441,166.032112 768.314498,165.664189 770.19,165.69 C773.302415,165.657758 776.331443,166.695677 778.77,168.63 L778.77,159.63 L778.78,159.59 Z M778.780094,179.73 C778.785381,178.593456 778.560882,177.467561 778.12,176.42 C777.26915,174.359483 775.626088,172.727231 773.56,171.89 C771.430573,171.010495 769.039427,171.010495 766.91,171.89 C765.889587,172.31306 764.959536,172.927437 764.17,173.7 C763.398037,174.484436 762.780622,175.407166 762.35,176.42 C761.909118,177.467561 761.684619,178.593456 761.69,179.73 C761.6808,180.857211 761.905534,181.974075 762.35,183.01 C762.779876,184.014359 763.397608,184.927381 764.17,185.7 C766.656777,188.126121 770.349596,188.837943 773.56,187.51 C775.616014,186.673158 777.256001,185.05475 778.12,183.01 C778.551424,181.961128 778.759187,180.833758 778.73,179.7 L778.780094,179.73 Z M535.54,169.44 L544.35,169.44 C545.386979,169.42953 546.420325,169.564168 547.42,169.84 C548.296215,170.074134 549.120554,170.471038 549.85,171.01 C550.54077,171.536388 551.093287,172.222745 551.46,173.01 C551.876572,173.887001 552.082054,174.849343 552.06,175.82 C552.11401,177.117649 551.678583,178.38824 550.84,179.38 C549.990292,180.319389 548.901614,181.010613 547.69,181.38 L547.69,181.45 C548.439571,181.496982 549.171437,181.697819 549.84,182.04 C550.504696,182.377412 551.096054,182.843021 551.58,183.41 C552.627942,184.610572 553.19434,186.156587 553.17,187.75 C553.191609,188.791671 552.954532,189.822441 552.48,190.75 C552.01516,191.616454 551.362596,192.368098 550.57,192.95 C549.7122,193.571692 548.750511,194.035605 547.73,194.32 C546.59888,194.644356 545.426639,194.802676 544.25,194.79 L535.54,194.79 L535.54,169.44 Z M539,180 L543.69,180 C544.301962,179.996654 544.911915,179.929626 545.51,179.8 C546.050483,179.677291 546.562842,179.453346 547.02,179.14 C547.438345,178.827421 547.780271,178.423949 548.02,177.96 C548.286602,177.412828 548.41371,176.808204 548.39,176.2 C548.391149,175.233234 548.035007,174.300142 547.39,173.58 C546.598305,172.792426 545.503657,172.387406 544.39,172.47 L539,172.47 L539,180 Z M539,191.83 L544,191.83 C544.583271,191.821858 545.165025,191.768363 545.74,191.67 C546.360282,191.563873 546.956432,191.347091 547.5,191.03 C548.057887,190.702353 548.536061,190.254919 548.9,189.72 C549.309589,189.069209 549.508625,188.307985 549.47,187.54 C549.565897,186.2344 549.016852,184.964499 548,184.14 C546.828603,183.331622 545.420856,182.937453 544,183.02 L539,183.02 L539,191.83 Z M564.11,184 L554.5,169.44 L558.9,169.44 L565.82,180.59 L572.94,169.44 L577.13,169.44 L567.53,184 L567.53,194.81 L564.09,194.81 L564.09,184 L564.11,184 Z">
</path>
</svg>